<svg id="canvas" height="auto" xmlns="http://www.w3.org/2000/svg" version="1.1" xmlns:xlink="http://www.w3.org/1999/xlink" viewBox="0 0 900 512" width="auto" style="width: auto; height: auto;">
  <rect width="900" height="512" fill="#25274D"/>
  <polyline points="0,512 0,33.57047308346616 112.5,0.2586620149249579 225,42.051447441313606 337.5,63.14052624404295 450,21.905967232524972 562.5,76.28730586055359 675,72.53938723345946 787.5,76.5414710263655 900,65.5107513334347 902,514" fill="#464866" opacity="0.9"/>
  <polyline points="0,512 0,172.74184833397698 112.5,84.76324104371736 225,142.18925123696764 337.5,165.978727042977 450,94.65422048010683 562.5,178.8810964371834 675,215.84736332963627 787.5,201.3234146982046 900,203.73171790307924 902,514" fill="#25274D" opacity="0.9"/>
  <polyline points="0,512 0,248.9061310351451 112.5,164.0509746788827 225,248.747806217733 337.5,233.1733746238139 450,228.84185281527016 562.5,297.0631427686645 675,296.18199431207864 787.5,288.33425783903374 900,317.5103464873408 902,514" fill="#464866" opacity="0.9"/>
  <polyline points="0,512 0,379.96972849491806 112.5,281.5744842776033 225,330.67662604053277 337.5,365.1492331491378 450,306.7986829333587 562.5,420.19778196266 675,388.84792050159444 787.5,355.4948970070891 900,405.9302507501196 902,514" fill="#25274D" opacity="0.9"/>
  <polyline points="0,512 0,443.57564650818745 112.5,403.7005773316565 225,444.5258786962365 337.5,441.1311883172433 450,407.47941868976136 562.5,496.35017955701136 675,506.9393369262193 787.5,475.6443284571061 900,488.1337437569189 902,514" fill="#2E9CCA" opacity="0.9"/>
  <polyline points="0,512 0,517.3335696850929 112.5,515.2896317455961 225,512.2301310577327 337.5,572.2627083202215 450,474.0126035857445 562.5,575.8378943790395 675,569.3720435596365 787.5,576.3658768926483 900,559.9136587029044 902,514" fill="#2E9CCA" opacity="0.9"/>
</svg>
